# xmcd CD database file
#
# Track frame offsets:
#	150
#	15015
#	27873
#	40795
#	53671
#	66883
#	82093
#	94562
#	106758
#	121496
#	136036
#	148792
#	160997
#	174613
#	188037
#	201549
#	215588
#	228754
#	243066
#	255991
#	266162
#	278668
#	291829
#	305489
#	319219
#
# Disc length: 4436 seconds
#
# Revision: 0
# Processed by: cddbd v1.5.2PL0 Copyright (c) Steve Scherf et al.
# Submitted via: CDex 1.75
#
DISCID=59115219
DTITLE=Various Artist - The Rough Guide To Hokum Blues
DYEAR=2018
DGENRE=Blues
TTITLE0=Bo Carter - Cigarette Blues
TTITLE1=Blind Boy Fuller - Truckin' My Blues Away No. 2 (Take 2)
TTITLE2=Big Bill Broonzy - Hokum Stomp
TTITLE3=Bessie Smith - Need A Little Sugar In My Bowl
TTITLE4=Blind Blake - Too Tight Blues No. 2
TTITLE5=Rufus and Ben Quillian - Satisfaction Blues
TTITLE6=Charley Jordan - Keep It Clean
TTITLE7=Lucille Bogan - Barbecue Bess
TTITLE8=Allen Brothers - Bow Wow Blues
TTITLE9=Dallas String Band with Coley Jones - Hokum Blues
TTITLE10=Kansas Joe and Memphis Minnie - What's The Matter With The Mill?
TTITLE11=Bogus Ben Covington - Adam And Eve In The Garden
TTITLE12=Barbecue Bob - Honey Your Going Too Fast
TTITLE13=Papa Charlie Jackson - Shake That Thing
TTITLE14=Lil Johnson - Sam The Hot Dog Man
TTITLE15=Charley Patton - Shake It And Break It (But Don t Let It Fall Mama)
TTITLE16=Noah Lewis' Jug Band  - Selling The Jelly
TTITLE17=Ma Rainey - Ma Rainey's Black Bottom
TTITLE18=Casey Bill Weldon - Your Wagon's Worn Out Now
TTITLE19=Frankie  Half-Pint  Jaxon - Can't You Wait Till You Get Home 
TTITLE20=Mississippi John Hurt - Candy Man Blues
TTITLE21=Blind Willie McTell - Warm It Up To Me
TTITLE22=Blind Lemon Jefferson - Black Snake Moan
TTITLE23=Tampa Red and Georgia Tom - It's Tight Like That
TTITLE24=Walter Coleman - Mama Let Me Lay It On You
EXTD=YEAR: 2018
EXTT0=
EXTT1=
EXTT2=
EXTT3=
EXTT4=
EXTT5=
EXTT6=
EXTT7=
EXTT8=
EXTT9=
EXTT10=
EXTT11=
EXTT12=
EXTT13=
EXTT14=
EXTT15=
EXTT16=
EXTT17=
EXTT18=
EXTT19=
EXTT20=
EXTT21=
EXTT22=
EXTT23=
EXTT24=
PLAYORDER=
